<svg width="262" height="32" viewBox="0 0 262 32" fill="none" xmlns="http://www.w3.org/2000/svg">
<path d="M3 11H6M6 11C6 12.6569 7.34315 14 9 14C10.6569 14 12 12.6569 12 11C12 9.34315 10.6569 8 9 8C7.34315 8 6 9.34315 6 11ZM3 21H9M18 21H21M18 21C18 22.6569 16.6569 24 15 24C13.3431 24 12 22.6569 12 21C12 19.3431 13.3431 18 15 18C16.6569 18 18 19.3431 18 21ZM15 11H21" stroke="#141718" stroke-width="1.5" stroke-linecap="round"/>
<path d="M33.4347 23V8.45455H42.7528V10.6634H36.0696V14.6122H42.1136V16.821H36.0696V23H33.4347ZM45.0398 23V12.0909H47.6108V23H45.0398ZM46.3324 10.5426C45.9252 10.5426 45.5748 10.4077 45.2812 10.1378C44.9877 9.86316 44.8409 9.53409 44.8409 9.15057C44.8409 8.76231 44.9877 8.43324 45.2812 8.16335C45.5748 7.88873 45.9252 7.75142 46.3324 7.75142C46.7443 7.75142 47.0947 7.88873 47.3835 8.16335C47.6771 8.43324 47.8239 8.76231 47.8239 9.15057C47.8239 9.53409 47.6771 9.86316 47.3835 10.1378C47.0947 10.4077 46.7443 10.5426 46.3324 10.5426ZM52.8256 8.45455V23H50.2546V8.45455H52.8256ZM60.9169 12.0909V14.0795H54.6456V12.0909H60.9169ZM56.1939 9.47727H58.7649V19.7188C58.7649 20.0644 58.817 20.3295 58.9212 20.5142C59.0301 20.6941 59.1721 20.8172 59.3473 20.8835C59.5225 20.9498 59.7166 20.983 59.9297 20.983C60.0907 20.983 60.2375 20.9711 60.37 20.9474C60.5073 20.9238 60.6115 20.9025 60.6825 20.8835L61.1158 22.8935C60.9785 22.9408 60.782 22.9929 60.5263 23.0497C60.2753 23.1065 59.9676 23.1397 59.603 23.1491C58.959 23.1681 58.379 23.071 57.8629 22.858C57.3468 22.6402 56.9373 22.304 56.6342 21.8494C56.3359 21.3949 56.1892 20.8267 56.1939 20.1449V9.47727ZM67.7795 23.2131C66.6857 23.2131 65.7411 22.9858 64.9457 22.5312C64.1549 22.072 63.5465 21.4233 63.1204 20.5852C62.6942 19.7424 62.4812 18.7505 62.4812 17.6094C62.4812 16.4872 62.6942 15.5024 63.1204 14.6548C63.5513 13.8026 64.1526 13.1397 64.9244 12.6662C65.6961 12.188 66.6029 11.9489 67.6445 11.9489C68.3169 11.9489 68.9513 12.0578 69.5479 12.2756C70.1493 12.4886 70.6796 12.8201 71.1388 13.2699C71.6029 13.7197 71.9674 14.2926 72.2326 14.9886C72.4978 15.6799 72.6303 16.5038 72.6303 17.4602V18.2486H63.6886V16.5156H70.1658C70.1611 16.0232 70.0546 15.5852 69.8462 15.2017C69.6379 14.8134 69.3467 14.508 68.9727 14.2855C68.6033 14.063 68.1725 13.9517 67.68 13.9517C67.1545 13.9517 66.6928 14.0795 66.2951 14.3352C65.8974 14.5862 65.5872 14.9176 65.3647 15.3295C65.1469 15.7367 65.0356 16.1842 65.0309 16.6719V18.1847C65.0309 18.8191 65.1469 19.3636 65.3789 19.8182C65.6109 20.268 65.9353 20.6136 66.3519 20.8551C66.7686 21.0919 67.2563 21.2102 67.815 21.2102C68.189 21.2102 68.5276 21.1581 68.8306 21.054C69.1336 20.9451 69.3964 20.7865 69.619 20.5781C69.8415 20.3698 70.0096 20.1117 70.1232 19.804L72.5238 20.0739C72.3723 20.7083 72.0835 21.2623 71.6573 21.7358C71.2359 22.2045 70.6961 22.5691 70.038 22.8295C69.3799 23.0852 68.627 23.2131 67.7795 23.2131ZM74.8054 23V12.0909H77.2983V13.9091H77.4119C77.6108 13.2794 77.9517 12.794 78.4347 12.4531C78.9223 12.1075 79.4787 11.9347 80.1037 11.9347C80.2457 11.9347 80.4044 11.9418 80.5795 11.956C80.7595 11.9654 80.9086 11.982 81.027 12.0057V14.3707C80.9181 14.3329 80.7453 14.2997 80.5085 14.2713C80.2765 14.2382 80.0516 14.2216 79.8338 14.2216C79.3651 14.2216 78.9437 14.3234 78.5696 14.527C78.2003 14.7259 77.9091 15.0028 77.696 15.358C77.483 15.7131 77.3764 16.1226 77.3764 16.5866V23H74.8054Z" fill="#121212"/>
</svg>
