<svg width="46" height="40" viewBox="0 0 46 40" fill="none" xmlns="http://www.w3.org/2000/svg">
<mask id="path-1-inside-1_411_1705" fill="white">
<path d="M0 0H46V40H0V0Z"/>
</mask>
<path d="M0 0H46V40H0V0Z" fill="white"/>
<path d="M45 0V40H47V0H45Z" fill="#E8ECEF" mask="url(#path-1-inside-1_411_1705)"/>
<path d="M23.9999 23.7501C23.9999 23.1533 24.237 22.581 24.659 22.1591C25.0809 21.7371 25.6532 21.5001 26.2499 21.5001L29.7499 21.5001C30.3467 21.5001 30.919 21.7371 31.3409 22.1591C31.7629 22.581 31.9999 23.1533 31.9999 23.7501L31.9999 27.2501C31.9999 27.8468 31.7629 28.4191 31.3409 28.8411C30.919 29.263 30.3467 29.5001 29.7499 29.5001L26.2499 29.5001C25.6532 29.5001 25.0809 29.263 24.659 28.8411C24.237 28.4191 23.9999 27.8468 23.9999 27.2501L23.9999 23.7501ZM23.9999 13.7501C23.9999 13.1533 24.237 12.581 24.6589 12.1591C25.0809 11.7371 25.6532 11.5001 26.2499 11.5001L29.7499 11.5001C30.3467 11.5001 30.919 11.7371 31.3409 12.1591C31.7629 12.581 31.9999 13.1533 31.9999 13.7501L31.9999 17.2501C31.9999 17.8468 31.7629 18.4191 31.3409 18.8411C30.919 19.263 30.3467 19.5001 29.7499 19.5001L26.2499 19.5001C25.6532 19.5001 25.0809 19.263 24.6589 18.8411C24.237 18.4191 23.9999 17.8468 23.9999 17.2501L23.9999 13.7501ZM13.9999 23.7501C13.9999 23.1533 14.237 22.581 14.6589 22.1591C15.0809 21.7371 15.6532 21.5001 16.2499 21.5001L19.7499 21.5001C20.3467 21.5001 20.919 21.7371 21.3409 22.1591C21.7629 22.581 21.9999 23.1533 21.9999 23.7501L21.9999 27.2501C21.9999 27.8468 21.7629 28.4191 21.3409 28.8411C20.919 29.263 20.3467 29.5001 19.7499 29.5001L16.2499 29.5001C15.6532 29.5001 15.0809 29.263 14.6589 28.8411C14.237 28.4191 13.9999 27.8468 13.9999 27.2501L13.9999 23.7501ZM13.9999 13.7501C13.9999 13.1533 14.237 12.581 14.6589 12.1591C15.0809 11.7371 15.6532 11.5001 16.2499 11.5001L19.7499 11.5001C20.3467 11.5001 20.919 11.7371 21.3409 12.1591C21.7629 12.581 21.9999 13.1533 21.9999 13.7501L21.9999 17.2501C21.9999 17.8468 21.7629 18.4191 21.3409 18.8411C20.919 19.263 20.3467 19.5001 19.7499 19.5001L16.2499 19.5001C15.6532 19.5001 15.0809 19.263 14.6589 18.8411C14.237 18.4191 13.9999 17.8468 13.9999 17.2501L13.9999 13.7501Z" fill="#6C7275"/>
<path d="M16.9999 29.5001L16.9999 21.502L28.9999 21.502L28.9999 29.5001L16.9999 29.5001Z" fill="#6C7275"/>
<path d="M16.9999 19.4981L16.9999 11.5001L28.9999 11.5001L28.9999 19.4981L16.9999 19.4981Z" fill="#6C7275"/>
</svg>
